<?xml version="1.0" encoding="iso-8859-1"?>
<!-- Generator: Adobe Illustrator 19.0.0, SVG Export Plug-In . SVG Version: 6.00 Build 0)  -->
<svg version="1.1" id="Layer_1" xmlns="http://www.w3.org/2000/svg" xmlns:xlink="http://www.w3.org/1999/xlink" x="0px" y="0px"
	 viewBox="0 0 512 512" style="enable-background:new 0 0 512 512;" xml:space="preserve">
<g>
	<g>
		<path d="M425.745,0H86.256c-5.632,0-10.199,4.566-10.199,10.199v491.602c0,5.633,4.567,10.199,10.199,10.199h339.488
			c5.632,0,10.199-4.566,10.199-10.199V10.199C435.944,4.566,431.377,0,425.745,0z M96.455,491.602V20.398h319.089v471.203H96.455z"
			/>
	</g>
</g>
<g>
	<g>
		<path d="M384.893,39.777H127.108c-5.632,0-10.199,4.566-10.199,10.199v341.673c0,5.633,4.567,10.199,10.199,10.199h257.785
			c5.632,0,10.199-4.566,10.199-10.199V49.976C395.092,44.343,390.525,39.777,384.893,39.777z M374.694,381.45H137.307V60.175
			h237.386V381.45z"/>
	</g>
</g>
<g>
	<g>
		<path d="M326.409,95.872H185.592c-17.631,0-31.976,14.344-31.976,31.976v201.789c0,5.633,4.567,10.199,10.199,10.199h184.369
			v-0.001c5.632,0,10.199-4.566,10.199-10.199V127.848C358.384,110.217,344.041,95.872,326.409,95.872z M277.015,319.437
			L277.015,319.437h-42.027v-6.496c0-0.38,0.309-0.688,0.689-0.688h40.648c0.38,0,0.689,0.309,0.689,0.688V319.437z
			 M337.986,319.437h-40.573v-6.496c0-11.627-9.46-21.087-21.088-21.087h-40.648c-11.627,0-21.088,9.46-21.088,21.087v6.496h-40.573
			V127.848c0-6.384,5.193-11.577,11.577-11.577h140.816c6.384,0,11.577,5.193,11.577,11.577V319.437z"/>
	</g>
</g>
<g>
	<g>
		<path d="M291.567,121.371h-3.629c-5.632,0-10.199,4.566-10.199,10.199c0,5.633,4.567,10.199,10.199,10.199h3.629
			c5.632,0,10.199-4.566,10.199-10.199C301.766,125.937,297.199,121.371,291.567,121.371z"/>
	</g>
</g>
<g>
	<g>
		<path d="M262.533,121.371h-42.099c-5.632,0-10.199,4.566-10.199,10.199c0,5.633,4.566,10.199,10.199,10.199h42.099
			c5.632,0,10.199-4.566,10.199-10.199C272.732,125.937,268.165,121.371,262.533,121.371z"/>
	</g>
</g>
<g>
	<g>
		<path d="M303.808,146.996h-95.615c-12.249,0-22.215,9.966-22.215,22.215v42.848c0,12.249,9.966,22.215,22.215,22.215h95.615
			c12.249,0,22.215-9.966,22.215-22.215v-42.848C326.023,156.962,316.057,146.996,303.808,146.996z M305.625,212.059
			c0,1.002-0.815,1.816-1.816,1.816h-95.616c-1.002,0-1.816-0.816-1.816-1.816v-42.848c0-1.002,0.815-1.817,1.816-1.817h95.616
			c1.002,0,1.816,0.815,1.816,1.817V212.059z"/>
	</g>
</g>
<g>
	<g>
		<path d="M209.502,241.721c-13.829,0-25.079,11.251-25.079,25.079c0,13.829,11.25,25.08,25.079,25.08s25.08-11.251,25.08-25.08
			C234.582,252.972,223.331,241.721,209.502,241.721z M209.502,271.481c-2.58,0-4.68-2.1-4.68-4.681s2.1-4.68,4.68-4.68
			c2.581,0,4.681,2.1,4.681,4.68S212.084,271.481,209.502,271.481z"/>
	</g>
</g>
<g>
	<g>
		<path d="M302.499,241.721c-13.829,0-25.08,11.251-25.08,25.079c0,13.829,11.251,25.08,25.08,25.08s25.079-11.251,25.079-25.08
			C327.577,252.972,316.327,241.721,302.499,241.721z M302.499,271.481c-2.581,0-4.681-2.1-4.681-4.681s2.1-4.68,4.681-4.68
			c2.58,0,4.68,2.1,4.68,4.68S305.079,271.481,302.499,271.481z"/>
	</g>
</g>
<g>
	<g>
		<path d="M287.618,458.964H119.331c-5.632,0-10.199,4.566-10.199,10.199c0,5.633,4.567,10.199,10.199,10.199h168.287
			c5.632,0,10.199-4.566,10.199-10.199C297.817,463.53,293.25,458.964,287.618,458.964z"/>
	</g>
</g>
<g>
	<g>
		<path d="M324.335,458.964h-4.08c-5.632,0-10.199,4.566-10.199,10.199c0,5.633,4.567,10.199,10.199,10.199h4.08
			c5.632,0,10.199-4.566,10.199-10.199C334.534,463.53,329.967,458.964,324.335,458.964z"/>
	</g>
</g>
<g>
</g>
<g>
</g>
<g>
</g>
<g>
</g>
<g>
</g>
<g>
</g>
<g>
</g>
<g>
</g>
<g>
</g>
<g>
</g>
<g>
</g>
<g>
</g>
<g>
</g>
<g>
</g>
<g>
</g>
</svg>
